<mxfile host="app.diagrams.net" modified="2023-09-29T15:40:25.637Z" agent="Mozilla/5.0 (X11; Linux x86_64; rv:109.0) Gecko/20100101 Firefox/112.0" etag="2ZAzw7gGqWM5gE6Oqsdy" version="22.0.0" type="github" pages="2">
  <diagram id="C5RBs43oDa-KdzZeNtuy" name="DiagramaAtividade">
    <mxGraphModel dx="880" dy="478" grid="1" gridSize="10" guides="1" tooltips="1" connect="1" arrows="1" fold="1" page="1" pageScale="1" pageWidth="827" pageHeight="1169" math="0" shadow="0">
      <root>
        <mxCell id="WIyWlLk6GJQsqaUBKTNV-0" />
        <mxCell id="WIyWlLk6GJQsqaUBKTNV-1" parent="WIyWlLk6GJQsqaUBKTNV-0" />
        <mxCell id="2d2iZHLiT1Cx9WOOCi-t-0" value="Arquiteta" style="swimlane;whiteSpace=wrap;html=1;" parent="WIyWlLk6GJQsqaUBKTNV-1" vertex="1">
          <mxGeometry x="70" y="20" width="860" height="460" as="geometry" />
        </mxCell>
        <mxCell id="2d2iZHLiT1Cx9WOOCi-t-5" value="" style="edgeStyle=orthogonalEdgeStyle;rounded=0;orthogonalLoop=1;jettySize=auto;html=1;" parent="2d2iZHLiT1Cx9WOOCi-t-0" source="2d2iZHLiT1Cx9WOOCi-t-3" target="2d2iZHLiT1Cx9WOOCi-t-4" edge="1">
          <mxGeometry relative="1" as="geometry" />
        </mxCell>
        <mxCell id="2d2iZHLiT1Cx9WOOCi-t-3" value="" style="ellipse;fillColor=strokeColor;html=1;" parent="2d2iZHLiT1Cx9WOOCi-t-0" vertex="1">
          <mxGeometry x="20" y="70" width="30" height="30" as="geometry" />
        </mxCell>
        <mxCell id="2d2iZHLiT1Cx9WOOCi-t-7" value="" style="edgeStyle=orthogonalEdgeStyle;rounded=0;orthogonalLoop=1;jettySize=auto;html=1;" parent="2d2iZHLiT1Cx9WOOCi-t-0" source="2d2iZHLiT1Cx9WOOCi-t-4" target="2d2iZHLiT1Cx9WOOCi-t-6" edge="1">
          <mxGeometry relative="1" as="geometry" />
        </mxCell>
        <mxCell id="2d2iZHLiT1Cx9WOOCi-t-4" value="&lt;strong&gt;Iniciar Geração de Relatório&lt;/strong&gt;" style="ellipse;whiteSpace=wrap;html=1;" parent="2d2iZHLiT1Cx9WOOCi-t-0" vertex="1">
          <mxGeometry x="105" y="45" width="80" height="80" as="geometry" />
        </mxCell>
        <mxCell id="2d2iZHLiT1Cx9WOOCi-t-9" value="" style="edgeStyle=orthogonalEdgeStyle;rounded=0;orthogonalLoop=1;jettySize=auto;html=1;" parent="2d2iZHLiT1Cx9WOOCi-t-0" source="2d2iZHLiT1Cx9WOOCi-t-6" target="2d2iZHLiT1Cx9WOOCi-t-8" edge="1">
          <mxGeometry relative="1" as="geometry" />
        </mxCell>
        <mxCell id="2d2iZHLiT1Cx9WOOCi-t-6" value="&lt;strong&gt;Coletar Critérios de Seleção&lt;/strong&gt;" style="ellipse;whiteSpace=wrap;html=1;" parent="2d2iZHLiT1Cx9WOOCi-t-0" vertex="1">
          <mxGeometry x="265" y="45" width="80" height="80" as="geometry" />
        </mxCell>
        <mxCell id="2d2iZHLiT1Cx9WOOCi-t-11" value="" style="edgeStyle=orthogonalEdgeStyle;rounded=0;orthogonalLoop=1;jettySize=auto;html=1;" parent="2d2iZHLiT1Cx9WOOCi-t-0" source="2d2iZHLiT1Cx9WOOCi-t-8" target="2d2iZHLiT1Cx9WOOCi-t-10" edge="1">
          <mxGeometry relative="1" as="geometry" />
        </mxCell>
        <mxCell id="2d2iZHLiT1Cx9WOOCi-t-8" value="&lt;strong&gt;Buscar Dados&lt;/strong&gt;" style="ellipse;whiteSpace=wrap;html=1;" parent="2d2iZHLiT1Cx9WOOCi-t-0" vertex="1">
          <mxGeometry x="425" y="45" width="80" height="80" as="geometry" />
        </mxCell>
        <mxCell id="2d2iZHLiT1Cx9WOOCi-t-13" value="Sim" style="edgeStyle=orthogonalEdgeStyle;rounded=0;orthogonalLoop=1;jettySize=auto;html=1;" parent="2d2iZHLiT1Cx9WOOCi-t-0" source="2d2iZHLiT1Cx9WOOCi-t-10" target="2d2iZHLiT1Cx9WOOCi-t-12" edge="1">
          <mxGeometry relative="1" as="geometry" />
        </mxCell>
        <mxCell id="2d2iZHLiT1Cx9WOOCi-t-15" value="Não" style="edgeStyle=orthogonalEdgeStyle;rounded=0;orthogonalLoop=1;jettySize=auto;html=1;" parent="2d2iZHLiT1Cx9WOOCi-t-0" source="2d2iZHLiT1Cx9WOOCi-t-10" target="2d2iZHLiT1Cx9WOOCi-t-14" edge="1">
          <mxGeometry relative="1" as="geometry" />
        </mxCell>
        <mxCell id="2d2iZHLiT1Cx9WOOCi-t-10" value="Consultar Dados" style="rhombus;whiteSpace=wrap;html=1;" parent="2d2iZHLiT1Cx9WOOCi-t-0" vertex="1">
          <mxGeometry x="585" y="45" width="80" height="80" as="geometry" />
        </mxCell>
        <mxCell id="2d2iZHLiT1Cx9WOOCi-t-18" value="" style="edgeStyle=orthogonalEdgeStyle;rounded=0;orthogonalLoop=1;jettySize=auto;html=1;" parent="2d2iZHLiT1Cx9WOOCi-t-0" source="2d2iZHLiT1Cx9WOOCi-t-12" target="2d2iZHLiT1Cx9WOOCi-t-17" edge="1">
          <mxGeometry relative="1" as="geometry" />
        </mxCell>
        <mxCell id="2d2iZHLiT1Cx9WOOCi-t-12" value="&lt;strong&gt;Gerar Relatório&lt;/strong&gt;" style="ellipse;whiteSpace=wrap;html=1;" parent="2d2iZHLiT1Cx9WOOCi-t-0" vertex="1">
          <mxGeometry x="745" y="45" width="80" height="80" as="geometry" />
        </mxCell>
        <mxCell id="2d2iZHLiT1Cx9WOOCi-t-16" style="edgeStyle=orthogonalEdgeStyle;rounded=0;orthogonalLoop=1;jettySize=auto;html=1;entryX=0.5;entryY=1;entryDx=0;entryDy=0;dashed=1;dashPattern=8 8;" parent="2d2iZHLiT1Cx9WOOCi-t-0" source="2d2iZHLiT1Cx9WOOCi-t-14" target="2d2iZHLiT1Cx9WOOCi-t-4" edge="1">
          <mxGeometry relative="1" as="geometry">
            <mxPoint x="140" y="130" as="targetPoint" />
          </mxGeometry>
        </mxCell>
        <mxCell id="2d2iZHLiT1Cx9WOOCi-t-14" value="&lt;strong&gt;Notificar Erro&lt;/strong&gt;" style="ellipse;whiteSpace=wrap;html=1;" parent="2d2iZHLiT1Cx9WOOCi-t-0" vertex="1">
          <mxGeometry x="585" y="205" width="80" height="80" as="geometry" />
        </mxCell>
        <mxCell id="2d2iZHLiT1Cx9WOOCi-t-20" value="" style="edgeStyle=orthogonalEdgeStyle;rounded=0;orthogonalLoop=1;jettySize=auto;html=1;" parent="2d2iZHLiT1Cx9WOOCi-t-0" source="2d2iZHLiT1Cx9WOOCi-t-17" edge="1">
          <mxGeometry relative="1" as="geometry">
            <mxPoint x="785" y="405" as="targetPoint" />
          </mxGeometry>
        </mxCell>
        <mxCell id="2d2iZHLiT1Cx9WOOCi-t-17" value="&lt;strong&gt;Finalizar Geração de Relatório&lt;/strong&gt;" style="ellipse;whiteSpace=wrap;html=1;" parent="2d2iZHLiT1Cx9WOOCi-t-0" vertex="1">
          <mxGeometry x="745" y="205" width="80" height="80" as="geometry" />
        </mxCell>
        <mxCell id="2d2iZHLiT1Cx9WOOCi-t-21" value="" style="ellipse;html=1;shape=endState;fillColor=strokeColor;" parent="2d2iZHLiT1Cx9WOOCi-t-0" vertex="1">
          <mxGeometry x="770" y="410" width="30" height="30" as="geometry" />
        </mxCell>
      </root>
    </mxGraphModel>
  </diagram>
  <diagram id="pJcgvmqIcq5wlnqQvWJb" name="DiagramaSequência">
    <mxGraphModel dx="880" dy="478" grid="1" gridSize="10" guides="1" tooltips="1" connect="1" arrows="1" fold="1" page="1" pageScale="1" pageWidth="850" pageHeight="1100" math="0" shadow="0">
      <root>
        <mxCell id="0" />
        <mxCell id="1" parent="0" />
        <mxCell id="UHrXWRQAYWXWYUGJ6yIW-1" value="Sistema" style="shape=umlLifeline;perimeter=lifelinePerimeter;whiteSpace=wrap;html=1;container=1;dropTarget=0;collapsible=0;recursiveResize=0;outlineConnect=0;portConstraint=eastwest;newEdgeStyle={&quot;curved&quot;:0,&quot;rounded&quot;:0};" vertex="1" parent="1">
          <mxGeometry x="120" y="40" width="100" height="440" as="geometry" />
        </mxCell>
        <mxCell id="UHrXWRQAYWXWYUGJ6yIW-2" value="Relatório Clientes" style="shape=umlLifeline;perimeter=lifelinePerimeter;whiteSpace=wrap;html=1;container=1;dropTarget=0;collapsible=0;recursiveResize=0;outlineConnect=0;portConstraint=eastwest;newEdgeStyle={&quot;curved&quot;:0,&quot;rounded&quot;:0};" vertex="1" parent="1">
          <mxGeometry x="360" y="40" width="100" height="440" as="geometry" />
        </mxCell>
        <mxCell id="UHrXWRQAYWXWYUGJ6yIW-15" value="" style="html=1;points=[[0,0,0,0,5],[0,1,0,0,-5],[1,0,0,0,5],[1,1,0,0,-5]];perimeter=orthogonalPerimeter;outlineConnect=0;targetShapes=umlLifeline;portConstraint=eastwest;newEdgeStyle={&quot;curved&quot;:0,&quot;rounded&quot;:0};" vertex="1" parent="UHrXWRQAYWXWYUGJ6yIW-2">
          <mxGeometry x="45" y="290" width="20" height="30" as="geometry" />
        </mxCell>
        <mxCell id="UHrXWRQAYWXWYUGJ6yIW-5" value="" style="html=1;points=[[0,0,0,0,5],[0,1,0,0,-5],[1,0,0,0,5],[1,1,0,0,-5]];perimeter=orthogonalPerimeter;outlineConnect=0;targetShapes=umlLifeline;portConstraint=eastwest;newEdgeStyle={&quot;curved&quot;:0,&quot;rounded&quot;:0};" vertex="1" parent="1">
          <mxGeometry x="400" y="100" width="20" height="80" as="geometry" />
        </mxCell>
        <mxCell id="UHrXWRQAYWXWYUGJ6yIW-6" value="1: iniciarGeração" style="html=1;verticalAlign=bottom;endArrow=block;curved=0;rounded=0;entryX=0;entryY=0;entryDx=0;entryDy=5;" edge="1" target="UHrXWRQAYWXWYUGJ6yIW-5" parent="1">
          <mxGeometry relative="1" as="geometry">
            <mxPoint x="169.5" y="105" as="sourcePoint" />
          </mxGeometry>
        </mxCell>
        <mxCell id="UHrXWRQAYWXWYUGJ6yIW-7" value="2: coletarCriterios(dados)" style="html=1;verticalAlign=bottom;endArrow=open;dashed=1;endSize=8;curved=0;rounded=0;exitX=0;exitY=1;exitDx=0;exitDy=-5;" edge="1" source="UHrXWRQAYWXWYUGJ6yIW-5" parent="1">
          <mxGeometry relative="1" as="geometry">
            <mxPoint x="169.5" y="175" as="targetPoint" />
          </mxGeometry>
        </mxCell>
        <mxCell id="UHrXWRQAYWXWYUGJ6yIW-11" value="" style="html=1;points=[[0,0,0,0,5],[0,1,0,0,-5],[1,0,0,0,5],[1,1,0,0,-5]];perimeter=orthogonalPerimeter;outlineConnect=0;targetShapes=umlLifeline;portConstraint=eastwest;newEdgeStyle={&quot;curved&quot;:0,&quot;rounded&quot;:0};" vertex="1" parent="1">
          <mxGeometry x="400" y="210" width="20" height="80" as="geometry" />
        </mxCell>
        <mxCell id="UHrXWRQAYWXWYUGJ6yIW-12" value="3: buscarDados(dados)" style="html=1;verticalAlign=bottom;endArrow=block;curved=0;rounded=0;entryX=0;entryY=0;entryDx=0;entryDy=5;" edge="1" parent="1" target="UHrXWRQAYWXWYUGJ6yIW-11">
          <mxGeometry relative="1" as="geometry">
            <mxPoint x="169.5" y="215" as="sourcePoint" />
          </mxGeometry>
        </mxCell>
        <mxCell id="UHrXWRQAYWXWYUGJ6yIW-13" value="4: relatorioGerado" style="html=1;verticalAlign=bottom;endArrow=open;dashed=1;endSize=8;curved=0;rounded=0;exitX=0;exitY=1;exitDx=0;exitDy=-5;" edge="1" parent="1" source="UHrXWRQAYWXWYUGJ6yIW-11">
          <mxGeometry relative="1" as="geometry">
            <mxPoint x="169.5" y="285" as="targetPoint" />
          </mxGeometry>
        </mxCell>
        <mxCell id="UHrXWRQAYWXWYUGJ6yIW-14" value="5: fimGeração" style="html=1;verticalAlign=bottom;endArrow=block;curved=0;rounded=0;" edge="1" parent="1" target="UHrXWRQAYWXWYUGJ6yIW-2">
          <mxGeometry width="80" relative="1" as="geometry">
            <mxPoint x="170" y="330" as="sourcePoint" />
            <mxPoint x="250" y="330" as="targetPoint" />
            <Array as="points">
              <mxPoint x="210" y="330" />
            </Array>
          </mxGeometry>
        </mxCell>
      </root>
    </mxGraphModel>
  </diagram>
</mxfile>
